<?xml version="1.0" encoding="utf-8"?>
<!-- Generator: Adobe Illustrator 18.0.0, SVG Export Plug-In . SVG Version: 6.00 Build 0)  -->
<!DOCTYPE svg PUBLIC "-//W3C//DTD SVG 1.1//EN" "http://www.w3.org/Graphics/SVG/1.1/DTD/svg11.dtd">
<svg version="1.1" id="Layer_1" xmlns="http://www.w3.org/2000/svg" xmlns:xlink="http://www.w3.org/1999/xlink" x="0px" y="0px"
	 viewBox="0 0 800 800" enable-background="new 0 0 800 800" xml:space="preserve">
<rect x="200.9" y="374.7" fill="#6CB4D0" width="223.2" height="60.8"/>
<rect x="529.4" y="338.3" fill="#6CB4D0" width="36.3" height="32.5"/>
<g>
	<g>
		<path fill="#FFFFFF" d="M599.1,459c-11.5,0-19.3-5.8-23.2-17.3l-5.5-15.5c-1.6,8.7-3,16.8-4,24.6c-0.5,3.7-3.7,6.5-7.4,6.5H537
			c-2.2,0-4.3-1-5.7-2.6c-0.2-0.3-0.4-0.5-0.6-0.8c-4.5,3.3-10.7,5.2-17.9,5.2c-12.9,0-21.2-8.5-21.3-21.6c-1.4,3.7-2.9,6.8-4.3,9.2
			c-6.8,11.4-17.2,11.4-31.7,11.4c-2.5,0-4.8-1.2-6.2-3.3c-1.4-2.1-1.7-4.7-0.8-7c8.2-20.9,15.2-46.2,15.2-55.4c0-0.1,0-0.2,0-0.3
			c-7.1,2.9-20.4,23.5-27.6,53.6l-1,5.5c-0.7,3.5-3.8,6.1-7.4,6.1h-22.3c-2.2,0-4.3-1-5.8-2.7c-1.4-1.7-2-3.9-1.6-6.1
			c6.2-34.9,10.8-55,17.3-77.1c4.6-15.8,17.5-15.8,32.5-15.8c2.4,0,4.6,1.1,6,3.1c0.8,1.1,1.3,2.4,1.4,3.8
			c7.5-5.3,15.3-7.9,23.6-7.9c15,0,23.9,9.1,24.4,25.2c0.8-2.9,1.7-5.7,2.5-8.4c2.5-8,7-11.9,12.8-13.8c-0.7-0.5-1.3-1.1-1.9-1.7
			c-2.2-2.4-3.1-5.5-3-9.4c-0.1-10.7,7.7-23.4,20.1-32.6c1.3-1,2.9-1.5,4.5-1.5c2,0,4,0.8,5.5,2.4l10.1,10.8c1.4,1.5,2.2,3.6,2,5.7
			c-0.2,2.1-1.2,4-2.9,5.3c-8.1,6.2-13.1,12.3-15.6,19c0.3,0,0.7,0,1,0c2.4,0,4.6,1.1,6.1,3.1c1.4,1.9,1.8,4.4,1.1,6.7
			c-9.4,29.2-15.5,57.6-15.9,64.2c0,0,1.5,0,1.5,0c0.4,0,0.9,0,1.3,0.1c6.8-39.6,14.5-68.4,20.2-86.5c4.9-15.3,17.8-15.3,32.8-15.3
			c2.4,0,4.7,1.2,6.1,3.1s1.8,4.5,1,6.7c-5.2,15.8-10.1,33.1-14.4,51.6c9-7.7,15.2-15.7,18.4-27.4c0.9-3.3,3.9-5.5,7.2-5.5h24.2
			c2,0,3.9,0.8,5.3,2.2c1.4,1.4,2.2,3.4,2.2,5.4c-0.1,7.4-4.4,22.9-31.2,45.4l7.3,17.1c1.3,3.1,2.4,3.1,3,3.1h2.8
			c2.3,0,4.4,1,5.8,2.8s2,4.1,1.5,6.3c0,0-0.9,4.2-0.9,4.2C621.5,452.7,612,459,599.1,459z"/>
		<path fill="#6CB4D0" d="M538.4,319.7l10.1,10.8c-9.2,7.1-15,14.2-18.1,22.5c-4.4-0.5-6.8-1-8-2.4c-0.8-0.9-1.2-2.3-1.1-4.3
			C521.1,339.5,526.4,328.7,538.4,319.7 M585.5,335.3L585.5,335.3 M585.5,335.3c-6.4,19.3-12.2,40.8-17.3,64.1h9.4
			c12.9-10.1,22.1-20,26.3-35.7h24.2c-0.2,12.7-15.7,29.7-32.9,43.3l9.5,22.3c1.9,4.6,5.1,7.6,9.9,7.6h2.8l-0.9,4.1
			c-1.6,6.7-8.3,10.6-17.5,10.6c-8.5,0-13.2-3.9-16.1-12.2l-8-22.6h-10.4c-2.1,10.8-4.1,21.7-5.7,33H537c6.5-43.3,15-78.8,23-104.4
			C562.9,336,569.3,335.3,585.5,335.3 M479,361.9c10.4,0,17,5.3,17,19.3c0,17.3-8.8,51.1-15.2,61.5c-4.4,7.4-10.2,7.8-25.3,7.8
			c7.6-19.3,15.7-46.8,15.7-58.1c0-4.6-1.4-8.1-6-8.1c-13.8,0-29.3,30.2-36.4,59.9l-1.1,5.7h-22.3c5.8-32.7,10.2-53.2,17.1-76.3
			c2.8-9.7,9.2-10.4,25.3-10.4c-3,9.5-5.3,18.2-7.6,26.7C454.6,368.6,467.2,361.9,479,361.9 M538.5,363
			c-9.4,29.2-16.3,60.1-16.3,67.1c0,4.8,2.8,6.9,7.6,6.9h1.4l-0.9,4.2c-1.4,7.6-10.2,10.2-17.7,10.2c-7.6,0-13.8-3.9-13.8-14.3
			c0-10.8,7.2-41.7,14.1-63.8C516.1,363.7,522.3,363,538.5,363 M447.9,363L447.9,363 M628.1,363.7L628.1,363.7 M617.5,436.8
			L617.5,436.8 M531.3,437L531.3,437 M538.4,304.7c-3.1,0-6.2,1-8.9,2.9c-14.4,10.7-23.3,25.4-23.2,38.5c-0.1,3.2,0.4,6.1,1.4,8.8
			c-1.2,1-2.4,2.2-3.4,3.4c-0.6-0.9-1.3-1.7-2.1-2.4c-3.9-4.1-11.2-9-23.2-9c-7.2,0-14.2,1.7-20.9,5.1c-2.7-2.5-6.3-4-10.2-4h0
			c-8.9,0-16.2,0.2-22.6,2.4c-8.6,3-14.3,9.3-17.1,18.8c-6.7,22.4-11.2,42.8-17.5,77.9c-0.8,4.4,0.4,8.9,3.3,12.3
			c2.9,3.4,7.1,5.4,11.5,5.4h22.3c6,0,11.4-3.6,13.7-8.9c0.4,1.1,0.9,2.1,1.6,3.1c2.8,4.1,7.4,6.6,12.4,6.6c12.9,0,25.2,0,34.1-9.7
			c5,6.8,13.1,10.7,23.1,10.7c6.4,0,12.3-1.2,17.2-3.5c2.1,1.1,4.6,1.8,7.1,1.8H559c6.8,0,12.7-4.6,14.5-11.1
			c7,10.4,17.4,12.8,25.6,12.8c16.3,0,28.9-8.7,32.1-22.1c0-0.1,0-0.2,0.1-0.3l0.8-3.7c0.3-1.2,0.4-2.4,0.4-3.6
			c0-8.1-6.5-14.8-14.6-15l-4.5-10.5c14.8-13.2,29.2-30.2,29.7-47c0-0.2,0-0.4,0-0.6c0-8.3-6.7-15-15-15h0h-24.2
			c-2.7,0-5.3,0.7-7.6,2c1.1-3.5,2.2-7,3.3-10.4c0.6-1.6,0.9-3.3,0.9-5.1c0-8.3-6.7-15-15-15h0c-8.9,0-16.2,0.2-22.6,2.3
			c-0.5,0.2-1,0.3-1.5,0.5c-0.6-1-1.2-1.9-2-2.7l-10.1-10.8C546.5,306.4,542.5,304.7,538.4,304.7L538.4,304.7z"/>
	</g>
	<g>
		<g>
			<g>
				<path fill="#FFFFFF" d="M273.3,437.2c0-10.8,7.2-41.7,14.1-63.8c3-9.7,9.2-10.4,25.4-10.4c-9.4,29.2-16.3,60.1-16.3,67.1
					c0,4.8,2.8,6.9,7.6,6.9h1.4l-0.9,4.2c-1.4,7.6-10.2,10.2-17.7,10.2C279.5,451.5,273.3,447.6,273.3,437.2z"/>
				<path fill="#6CB4D0" d="M312.9,363c-9.4,29.2-16.3,60.1-16.3,67.1c0,4.8,2.8,6.9,7.6,6.9h1.4l-0.9,4.2
					c-1.4,7.6-10.2,10.2-17.7,10.2c-7.6,0-13.8-3.9-13.8-14.3c0-10.8,7.2-41.7,14.1-63.8C290.5,363.7,296.7,363,312.9,363
					 M305.7,437L305.7,437 M312.9,348c-9,0-16.3,0.2-22.7,2.4c-8.5,3-14.2,9.2-17.1,18.6c-6.1,19.7-14.8,53.9-14.8,68.2
					c0,17.5,11.6,29.3,28.8,29.3c17.1,0,29.7-8.8,32.4-22.3l0.8-3.7c0.3-1.1,0.4-2.3,0.4-3.5c0-5.8-3.3-10.8-8.1-13.3
					c2-11.2,7.4-33.6,14.6-56.1c1.5-4.6,0.7-9.6-2.2-13.4C322.2,350.3,317.7,348,312.9,348L312.9,348z"/>
			</g>
		</g>
	</g>
	<g>
		<g>
			<g>
				<g>
					<path fill="#FFFFFF" d="M296.6,346.4c-0.2-7,5-17.8,17.1-26.7l10.1,10.8c-9.2,7.1-15,14.2-18.1,22.5c-4.4-0.5-6.8-1-8-2.4
						C296.8,349.7,296.5,348.4,296.6,346.4z"/>
					<path fill="#6CB4D0" d="M313.7,319.7l10.1,10.8c-9.2,7.1-15,14.2-18.1,22.5c-4.4-0.5-6.8-1-8-2.4c-0.8-0.9-1.2-2.3-1.1-4.3
						C296.4,339.5,301.6,328.7,313.7,319.7 M313.6,304.7c-3.1,0-6.2,1-8.9,2.9c-14.4,10.7-23.3,25.4-23.2,38.5
						c-0.2,5.7,1.5,10.6,4.9,14.4c5,5.6,11.7,6.7,17.6,7.4c0.5,0.1,1.1,0.1,1.6,0.1c6.2,0,11.9-3.9,14.1-9.8
						c2-5.4,6.2-10.4,13.2-15.8c3.3-2.6,5.5-6.4,5.8-10.7c0.3-4.2-1.1-8.4-4-11.5l-10.1-10.8C321.7,306.4,317.7,304.7,313.6,304.7
						L313.6,304.7z"/>
				</g>
			</g>
		</g>
	</g>
	<g>
		<g>
			<path fill="#FFFFFF" d="M316.1,449.7c6.5-43.3,15-78.8,23-104.4c3-9.4,9.4-10.1,25.6-10.1c-6.4,19.3-12.2,40.8-17.3,64.1h9.4
				c12.9-10.1,22.1-20,26.3-35.7h24.2c-0.2,12.7-15.7,29.7-32.9,43.3l9.5,22.3c1.9,4.6,5.1,7.6,9.9,7.6h2.8l-0.9,4.1
				c-1.6,6.7-8.3,10.6-17.5,10.6c-8.5,0-13.2-3.9-16.1-12.2l-8-22.6h-10.4c-2.1,10.8-4.1,21.7-5.7,33H316.1z"/>
			<path fill="#6CB4D0" d="M364.7,335.3L364.7,335.3 M364.7,335.3c-6.4,19.3-12.2,40.8-17.3,64.1h9.4c12.9-10.1,22.1-20,26.3-35.7
				h24.2c-0.2,12.7-15.7,29.7-32.9,43.3l9.5,22.3c1.9,4.6,5.1,7.6,9.9,7.6h2.8l-0.9,4.1c-1.6,6.7-8.3,10.6-17.5,10.6
				c-8.5,0-13.2-3.9-16.1-12.2l-8-22.6h-10.4c-2.1,10.8-4.1,21.7-5.7,33h-22.1c6.5-43.3,15-78.8,23-104.4
				C342.1,336,348.4,335.3,364.7,335.3 M407.3,363.7L407.3,363.7 M396.7,436.8L396.7,436.8 M364.7,320.3L364.7,320.3
				c-8.9,0-16.2,0.2-22.6,2.3c-8.6,2.9-14.4,9-17.3,18.2c0,0,0,0.1,0,0.1c-6.6,21.1-15.9,56.7-23.5,106.6c-0.7,4.3,0.6,8.7,3.5,12
				c2.8,3.3,7,5.2,11.4,5.2h22.1c6.8,0,12.7-4.6,14.5-11.1c7,10.4,17.4,12.8,25.6,12.8c16.3,0,28.9-8.7,32.1-22.1
				c0-0.1,0-0.2,0.1-0.3l0.8-3.7c0.3-1.2,0.4-2.4,0.4-3.6c0-8.1-6.5-14.8-14.6-15l-4.5-10.5c6.4-5.7,11.9-11.4,16.3-16.9
				c8.7-10.9,13.1-20.7,13.4-30.1c0-0.2,0-0.4,0-0.6c0-8.3-6.7-15-15-15h0H383c-2.7,0-5.3,0.7-7.6,2c1.1-3.5,2.2-7,3.3-10.4
				c0.6-1.6,0.9-3.3,0.9-5.1C379.7,327,373,320.3,364.7,320.3C364.7,320.3,364.7,320.3,364.7,320.3
				C364.7,320.3,364.7,320.3,364.7,320.3L364.7,320.3z"/>
		</g>
	</g>
	<g>
		<g>
			<path fill="#FFFFFF" d="M224.7,451.5c-11.8,0-19.1-6.5-22.4-17.3c-3,14.5-5.7,29.3-8,44.7h-22.1c6.5-43.3,15-80.2,23.1-105.6
				c3-9.5,9.4-10.2,25.4-10.2c-2.8,8.3-5.5,17.1-8,26.3c9.5-15.2,22.3-27.4,36.9-27.4c12.7,0,20.8,9.7,20.8,27.4
				C270.7,421.1,249.1,451.5,224.7,451.5z M238.9,382.4c-11.5,0-25.3,23-30,38c0.9,6.7,5.5,12.4,12.5,12.4
				c14.5,0,25.8-20.5,25.8-38.3C247.2,387.6,245.2,382.4,238.9,382.4z"/>
			<path fill="#6CB4D0" d="M249.8,361.9c12.7,0,20.8,9.7,20.8,27.4c0,31.8-21.6,62.2-45.9,62.2c-11.8,0-19.1-6.5-22.4-17.3
				c-3,14.5-5.7,29.3-8,44.7h-22.1c6.5-43.3,15-80.2,23.1-105.6c3-9.5,9.4-10.2,25.4-10.2c-2.8,8.3-5.5,17.1-8,26.3
				C222.4,374.1,235.2,361.9,249.8,361.9 M221.4,432.8c14.5,0,25.8-20.5,25.8-38.3c0-6.9-1.9-12-8.3-12c-11.5,0-25.3,23-30,38
				C209.7,427.1,214.3,432.8,221.4,432.8 M220.8,363L220.8,363 M249.8,346.9c-5.5,0-12.1,1.1-19.3,4.6c-2.6-2.2-6-3.5-9.7-3.5
				c0,0,0,0,0,0c0,0,0,0,0,0h0c-8.9,0-16.2,0.2-22.5,2.4c-8.5,2.9-14.3,9.1-17.2,18.3c-9,28.3-17.4,66.6-23.7,108
				c-0.7,4.3,0.6,8.7,3.5,12c2.8,3.3,7,5.2,11.4,5.2h22.1c7.4,0,13.7-5.4,14.8-12.8c0.8-5.5,1.7-11.1,2.7-16.6c4,1.3,8.3,2,12.9,2
				c16.4,0,32.5-9.2,44.2-25.3c10.6-14.6,16.7-33.5,16.7-51.9c0-12.1-3-22-8.8-29.5C270.4,351.5,260.8,346.9,249.8,346.9
				L249.8,346.9z"/>
		</g>
	</g>
</g>
</svg>
